<svg data-v-423bf9ae="" xmlns="http://www.w3.org/2000/svg" viewBox="0 0 251.72971942902575 183" class="iconAboveSlogan"><!----><!----><!----><g data-v-423bf9ae="" id="95ea6bb3-ccc1-4f5e-bf0c-515390d565e8" fill="black" transform="matrix(5.405405219639779,0,0,5.405405219639779,-4.59459601039012,105.27027320308873)"><path d="M9.16 5.10L9.21 2.84L6.87 10.50L5.00 10.50L2.67 2.84L2.73 5.10L2.73 10.50L0.85 10.50L0.85-0.42L3.61-0.42L5.94 7.25L8.27-0.42L11.03-0.42L11.03 10.50L9.16 10.50L9.16 5.10ZM18.77 10.50L17.16 10.50L17.02 9.65L17.02 9.65Q16.13 10.68 14.60 10.68L14.60 10.68L14.60 10.68Q13.48 10.68 12.92 10.07L12.92 10.07L12.92 10.07Q12.36 9.45 12.36 8.50L12.36 8.50L12.36 8.36L12.36 8.36Q12.36 7.24 13.04 6.73L13.04 6.73L13.04 6.73Q13.72 6.22 14.95 6.03L14.95 6.03L16.84 5.74L16.84 5.71L16.84 5.71Q16.84 4.98 16.57 4.65L16.57 4.65L16.57 4.65Q16.30 4.31 15.61 4.31L15.61 4.31L15.61 4.31Q14.38 4.31 14.38 5.53L14.38 5.53L12.64 5.53L12.64 5.40L12.64 5.40Q12.64 4.33 13.34 3.61L13.34 3.61L13.34 3.61Q14.03 2.90 15.65 2.90L15.65 2.90L15.65 2.90Q17.30 2.90 17.98 3.61L17.98 3.61L17.98 3.61Q18.66 4.33 18.66 5.71L18.66 5.71L18.66 8.40L18.77 10.50ZM15.23 9.18L15.23 9.18L15.23 9.18Q16.27 9.18 16.84 8.41L16.84 8.41L16.84 6.85L15.29 7.10L15.29 7.10Q14.18 7.28 14.18 8.16L14.18 8.16L14.18 8.27L14.18 8.27Q14.18 8.65 14.45 8.92L14.45 8.92L14.45 8.92Q14.71 9.18 15.23 9.18ZM28.57 5.10L28.63 2.84L26.29 10.50L24.42 10.50L22.09 2.84L22.15 5.10L22.15 10.50L20.27 10.50L20.27-0.42L23.03-0.42L25.35 7.25L27.69-0.42L30.45-0.42L30.45 10.50L28.57 10.50L28.57 5.10ZM38.19 10.50L36.58 10.50L36.44 9.65L36.44 9.65Q35.55 10.68 34.02 10.68L34.02 10.68L34.02 10.68Q32.90 10.68 32.34 10.07L32.34 10.07L32.34 10.07Q31.78 9.45 31.78 8.50L31.78 8.50L31.78 8.36L31.78 8.36Q31.78 7.24 32.46 6.73L32.46 6.73L32.46 6.73Q33.14 6.22 34.37 6.03L34.37 6.03L36.26 5.74L36.26 5.71L36.26 5.71Q36.26 4.98 35.99 4.65L35.99 4.65L35.99 4.65Q35.71 4.31 35.03 4.31L35.03 4.31L35.03 4.31Q33.80 4.31 33.80 5.53L33.80 5.53L32.06 5.53L32.06 5.40L32.06 5.40Q32.06 4.33 32.75 3.61L32.75 3.61L32.75 3.61Q33.45 2.90 35.07 2.90L35.07 2.90L35.07 2.90Q36.72 2.90 37.40 3.61L37.40 3.61L37.40 3.61Q38.08 4.33 38.08 5.71L38.08 5.71L38.08 8.40L38.19 10.50ZM34.65 9.18L34.65 9.18L34.65 9.18Q35.69 9.18 36.26 8.41L36.26 8.41L36.26 6.85L34.71 7.10L34.71 7.10Q33.60 7.28 33.60 8.16L33.60 8.16L33.60 8.27L33.60 8.27Q33.60 8.65 33.87 8.92L33.87 8.92L33.87 8.92Q34.13 9.18 34.65 9.18ZM47.42-0.42L44.55 10.56L41.96 10.56L39.09-0.42L41.10-0.42L43.26 8.41L45.40-0.42L47.42-0.42Z"></path></g><!----><g data-v-423bf9ae="" id="e3f7d467-f9ca-4ba1-b929-24b37661325d" transform="matrix(2.8125,0,0,2.8125,81.83000183105469,0)" stroke="none" fill="black"><path d="M2.83 18.247l26.34-9.124L2.83 0zM29.17 32V13.753L2.83 22.877z"></path></g><!----><g data-v-423bf9ae="" id="da7813c9-1098-450a-a183-c39c7c4abe38" fill="black" transform="matrix(0.6813572920963378,0,0,0.6813572920963378,32.29599633861703,202.91510610502075)"><path d="M2.35 14.45L2.35 14.45L2.35 14.45Q2.56 13.99 2.86 13.26L2.86 13.26L2.86 13.26Q3.15 12.53 3.47 11.68L3.47 11.68L3.47 11.68Q3.79 10.84 4.13 9.95L4.13 9.95L4.13 9.95Q4.47 9.06 4.76 8.26L4.76 8.26L4.76 8.26Q5.05 7.46 5.27 6.83L5.27 6.83L5.27 6.83Q5.49 6.20 5.59 5.87L5.59 5.87L5.59 5.87Q4.70 6.23 4.07 6.97L4.07 6.97L4.07 6.97Q3.44 7.71 3.12 8.83L3.12 8.83L3.12 8.83Q2.80 8.72 2.53 8.43L2.53 8.43L2.53 8.43Q2.27 8.15 2.18 7.71L2.18 7.71L2.18 7.71Q2.32 7.07 2.71 6.54L2.71 6.54L2.71 6.54Q3.09 6.01 3.68 5.63L3.68 5.63L3.68 5.63Q4.27 5.25 5.04 5.05L5.04 5.05L5.04 5.05Q5.81 4.84 6.69 4.84L6.69 4.84L6.69 4.84Q7.81 4.84 8.75 5.17L8.75 5.17L8.75 5.17Q9.69 5.50 10.36 6.09L10.36 6.09L10.36 6.09Q11.03 6.68 11.41 7.50L11.41 7.50L11.41 7.50Q11.79 8.33 11.79 9.34L11.79 9.34L11.79 9.34Q11.79 10.71 11.28 11.96L11.28 11.96L11.28 11.96Q10.78 13.20 9.92 14.15L9.92 14.15L9.92 14.15Q9.06 15.11 7.92 15.67L7.92 15.67L7.92 15.67Q6.79 16.24 5.54 16.24L5.54 16.24L5.54 16.24Q4.40 16.24 3.58 15.79L3.58 15.79L3.58 15.79Q2.76 15.33 2.35 14.45ZM7.29 5.54L7.29 5.54L7.29 5.54Q6.59 5.54 5.96 5.74L5.96 5.74L5.96 5.74Q6.58 5.96 6.99 6.21L6.99 6.21L6.99 6.21Q7.39 6.45 7.55 6.59L7.55 6.59L7.55 6.59Q7.43 6.75 7.22 7.14L7.22 7.14L7.22 7.14Q7 7.53 6.71 8.09L6.71 8.09L6.71 8.09Q6.43 8.65 6.10 9.32L6.10 9.32L6.10 9.32Q5.78 9.98 5.47 10.68L5.47 10.68L5.47 10.68Q4.68 12.46 4.32 13.48L4.32 13.48L4.32 13.48Q3.96 14.50 3.96 14.90L3.96 14.90L3.96 14.90Q4.16 14.97 4.44 14.99L4.44 14.99L4.44 14.99Q4.72 15.02 5.04 15.02L5.04 15.02L5.04 15.02Q6.17 15.02 7.19 14.50L7.19 14.50L7.19 14.50Q8.20 13.97 8.97 13.09L8.97 13.09L8.97 13.09Q9.73 12.21 10.17 11.04L10.17 11.04L10.17 11.04Q10.61 9.87 10.61 8.58L10.61 8.58L10.61 8.58Q10.61 7.14 9.72 6.34L9.72 6.34L9.72 6.34Q8.82 5.54 7.29 5.54ZM25.76 4.98L25.76 4.98L25.76 4.98Q26.03 5.10 26.31 5.27L26.31 5.27L26.31 5.27Q26.59 5.45 26.82 5.63L26.82 5.63L26.82 5.63Q27.06 5.81 27.22 5.98L27.22 5.98L27.22 5.98Q27.38 6.16 27.40 6.27L27.40 6.27L27.40 6.27Q27.16 6.22 26.92 6.20L26.92 6.20L26.92 6.20Q26.68 6.17 26.49 6.17L26.49 6.17L26.49 6.17Q25.86 6.17 25.23 6.48L25.23 6.48L25.23 6.48Q24.61 6.79 24.05 7.32L24.05 7.32L24.05 7.32Q23.49 7.85 23.02 8.57L23.02 8.57L23.02 8.57Q22.54 9.28 22.20 10.09L22.20 10.09L22.20 10.09Q21.85 10.91 21.66 11.77L21.66 11.77L21.66 11.77Q21.46 12.64 21.46 13.48L21.46 13.48L21.46 13.48Q21.46 14.57 21.83 15.11L21.83 15.11L21.83 15.11Q22.19 15.64 22.89 15.64L22.89 15.64L22.89 15.64Q23.23 15.64 23.62 15.51L23.62 15.51L23.62 15.51Q24.01 15.37 24.42 15.13L24.42 15.13L24.42 15.13Q24.82 14.90 25.21 14.56L25.21 14.56L25.21 14.56Q25.61 14.22 25.94 13.82L25.94 13.82L25.94 13.82Q26.43 13.23 26.82 12.48L26.82 12.48L26.82 12.48Q27.22 11.73 27.49 10.89L27.49 10.89L27.49 10.89Q27.76 10.05 27.91 9.16L27.91 9.16L27.91 9.16Q28.06 8.27 28.06 7.42L28.06 7.42L28.06 7.42Q28.06 7.08 28.04 6.85L28.04 6.85L28.04 6.85Q28.03 6.62 28.01 6.46L28.01 6.46L28.01 6.46Q27.99 6.30 27.97 6.20L27.97 6.20L27.97 6.20Q27.96 6.10 27.94 6.03L27.94 6.03L27.94 6.03Q28.11 6.12 28.31 6.24L28.31 6.24L28.31 6.24Q28.52 6.36 28.69 6.59L28.69 6.59L28.69 6.59Q28.87 6.82 28.99 7.20L28.99 7.20L28.99 7.20Q29.11 7.57 29.11 8.18L29.11 8.18L29.11 8.18Q29.11 9.16 28.88 10.10L28.88 10.10L28.88 10.10Q28.64 11.05 28.23 11.90L28.23 11.90L28.23 11.90Q27.82 12.75 27.26 13.50L27.26 13.50L27.26 13.50Q26.70 14.24 26.05 14.80L26.05 14.80L26.05 14.80Q25.21 15.54 24.26 15.95L24.26 15.95L24.26 15.95Q23.31 16.35 22.43 16.35L22.43 16.35L22.43 16.35Q21.14 16.35 20.46 15.53L20.46 15.53L20.46 15.53Q19.78 14.71 19.78 13.12L19.78 13.12L19.78 13.12Q19.78 12.26 19.97 11.31L19.97 11.31L19.97 11.31Q20.16 10.36 20.50 9.44L20.50 9.44L20.50 9.44Q20.85 8.51 21.32 7.68L21.32 7.68L21.32 7.68Q21.80 6.85 22.36 6.21L22.36 6.21L22.36 6.21Q22.93 5.57 23.58 5.19L23.58 5.19L23.58 5.19Q24.23 4.82 24.92 4.82L24.92 4.82L24.92 4.82Q25.14 4.82 25.34 4.85L25.34 4.85L25.34 4.85Q25.54 4.89 25.76 4.98ZM47.18 14.38L47.18 14.38L47.18 14.38Q47.18 13.87 47.34 13.07L47.34 13.07L47.34 13.07Q47.50 12.26 47.76 11.33L47.76 11.33L47.76 11.33Q48.02 10.40 48.36 9.43L48.36 9.43L48.36 9.43Q48.69 8.46 49.04 7.60L49.04 7.60L49.04 7.60Q49.39 6.75 49.73 6.10L49.73 6.10L49.73 6.10Q50.06 5.46 50.33 5.18L50.33 5.18L50.33 5.18Q50.47 5.19 50.70 5.29L50.70 5.29L50.70 5.29Q50.93 5.38 51.17 5.50L51.17 5.50L51.17 5.50Q51.41 5.63 51.60 5.78L51.60 5.78L51.60 5.78Q51.80 5.92 51.86 6.05L51.86 6.05L51.86 6.05Q51.45 6.41 51.05 7.15L51.05 7.15L51.05 7.15Q50.65 7.88 50.28 8.82L50.28 8.82L50.28 8.82Q49.91 9.76 49.59 10.80L49.59 10.80L49.59 10.80Q49.27 11.84 49.03 12.82L49.03 12.82L49.03 12.82Q48.79 13.80 48.66 14.64L48.66 14.64L48.66 14.64Q48.52 15.48 48.52 16.00L48.52 16.00L48.52 16.00Q48.52 16.24 48.57 16.30L48.57 16.30L48.57 16.30Q48.26 16.28 48.12 16.19L48.12 16.19L48.12 16.19Q47.98 16.10 47.90 16.00L47.90 16.00L47.90 16.00Q47.82 15.89 47.76 15.79L47.76 15.79L47.76 15.79Q47.70 15.68 47.57 15.62L47.57 15.62L47.57 15.62Q47.47 15.58 47.40 15.43L47.40 15.43L47.40 15.43Q47.33 15.27 47.28 15.09L47.28 15.09L47.28 15.09Q47.24 14.90 47.21 14.70L47.21 14.70L47.21 14.70Q47.18 14.50 47.18 14.38ZM60.94 6.69L60.94 6.69L60.94 6.69Q60.38 6.69 60.08 6.38L60.08 6.38L60.08 6.38Q59.78 6.06 59.78 5.61L59.78 5.61L59.78 5.61Q59.78 5.50 59.81 5.35L59.81 5.35L59.81 5.35Q59.85 5.19 59.91 5.08L59.91 5.08L59.91 5.08Q60.09 5.17 60.45 5.20L60.45 5.20L60.45 5.20Q60.80 5.24 61.28 5.24L61.28 5.24L61.28 5.24Q61.99 5.24 62.90 5.17L62.90 5.17L62.90 5.17Q63.80 5.11 64.62 5.04L64.62 5.04L64.62 5.04Q65.45 4.97 66.08 4.91L66.08 4.91L66.08 4.91Q66.71 4.84 66.89 4.84L66.89 4.84L66.89 4.84Q67.41 4.84 67.64 5.23L67.64 5.23L67.64 5.23Q67.87 5.61 67.98 6.26L67.98 6.26L67.98 6.26Q67.62 6.23 67.26 6.21L67.26 6.21L67.26 6.21Q66.91 6.19 66.65 6.19L66.65 6.19L66.65 6.19Q66.21 6.19 65.75 6.22L65.75 6.22L65.75 6.22Q65.30 6.24 64.83 6.30L64.83 6.30L64.83 6.30Q64.64 6.71 64.40 7.26L64.40 7.26L64.40 7.26Q64.16 7.81 63.93 8.41L63.93 8.41L63.93 8.41Q63.70 9.02 63.49 9.61L63.49 9.61L63.49 9.61Q63.28 10.21 63.13 10.68L63.13 10.68L63.13 10.68Q62.82 11.61 62.59 12.39L62.59 12.39L62.59 12.39Q62.36 13.17 62.18 13.85L62.18 13.85L62.18 13.85Q62.01 14.53 61.88 15.15L61.88 15.15L61.88 15.15Q61.75 15.76 61.66 16.35L61.66 16.35L61.66 16.35Q60.72 16.21 60.09 15.18L60.09 15.18L60.09 15.18Q60.20 14.74 60.36 14.23L60.36 14.23L60.36 14.23Q60.52 13.72 60.74 13.07L60.74 13.07L60.74 13.07Q60.96 12.42 61.25 11.59L61.25 11.59L61.25 11.59Q61.54 10.77 61.92 9.72L61.92 9.72L61.92 9.72Q62.06 9.32 62.22 8.90L62.22 8.90L62.22 8.90Q62.37 8.47 62.52 8.05L62.52 8.05L62.52 8.05Q62.66 7.63 62.78 7.24L62.78 7.24L62.78 7.24Q62.90 6.85 62.99 6.52L62.99 6.52L62.99 6.52Q62.40 6.59 61.87 6.64L61.87 6.64L61.87 6.64Q61.35 6.69 60.94 6.69ZM86.51 6.69L86.51 6.69L86.51 6.69Q85.95 6.69 85.64 6.38L85.64 6.38L85.64 6.38Q85.34 6.06 85.34 5.61L85.34 5.61L85.34 5.61Q85.34 5.50 85.38 5.35L85.38 5.35L85.38 5.35Q85.41 5.19 85.47 5.08L85.47 5.08L85.47 5.08Q85.65 5.17 86.01 5.20L86.01 5.20L86.01 5.20Q86.37 5.24 86.84 5.24L86.84 5.24L86.84 5.24Q87.56 5.24 88.46 5.17L88.46 5.17L88.46 5.17Q89.36 5.11 90.19 5.04L90.19 5.04L90.19 5.04Q91.01 4.97 91.64 4.91L91.64 4.91L91.64 4.91Q92.27 4.84 92.46 4.84L92.46 4.84L92.46 4.84Q92.97 4.84 93.20 5.23L93.20 5.23L93.20 5.23Q93.44 5.61 93.55 6.26L93.55 6.26L93.55 6.26Q93.18 6.23 92.83 6.21L92.83 6.21L92.83 6.21Q92.47 6.19 92.22 6.19L92.22 6.19L92.22 6.19Q91.77 6.19 91.31 6.22L91.31 6.22L91.31 6.22Q90.86 6.24 90.40 6.30L90.40 6.30L90.40 6.30Q90.20 6.71 89.96 7.26L89.96 7.26L89.96 7.26Q89.73 7.81 89.49 8.41L89.49 8.41L89.49 8.41Q89.26 9.02 89.05 9.61L89.05 9.61L89.05 9.61Q88.84 10.21 88.69 10.68L88.69 10.68L88.69 10.68Q88.38 11.61 88.15 12.39L88.15 12.39L88.15 12.39Q87.92 13.17 87.74 13.85L87.74 13.85L87.74 13.85Q87.57 14.53 87.44 15.15L87.44 15.15L87.44 15.15Q87.32 15.76 87.22 16.35L87.22 16.35L87.22 16.35Q86.28 16.21 85.65 15.18L85.65 15.18L85.65 15.18Q85.76 14.74 85.92 14.23L85.92 14.23L85.92 14.23Q86.09 13.72 86.30 13.07L86.30 13.07L86.30 13.07Q86.52 12.42 86.81 11.59L86.81 11.59L86.81 11.59Q87.11 10.77 87.49 9.72L87.49 9.72L87.49 9.72Q87.63 9.32 87.78 8.90L87.78 8.90L87.78 8.90Q87.93 8.47 88.08 8.05L88.08 8.05L88.08 8.05Q88.23 7.63 88.35 7.24L88.35 7.24L88.35 7.24Q88.47 6.85 88.55 6.52L88.55 6.52L88.55 6.52Q87.96 6.59 87.44 6.64L87.44 6.64L87.44 6.64Q86.91 6.69 86.51 6.69ZM104.43 14.36L104.43 14.36L104.43 14.36Q104.43 13.78 104.62 12.85L104.62 12.85L104.62 12.85Q104.82 11.93 105.14 10.88L105.14 10.88L105.14 10.88Q104.22 10.95 103.28 11.06L103.28 11.06L103.28 11.06Q102.35 11.17 101.67 11.19L101.67 11.19L101.67 11.19Q101.04 12.66 100.67 13.89L100.67 13.89L100.67 13.89Q100.30 15.13 100.09 16.31L100.09 16.31L100.09 16.31Q99.55 16.18 99.20 15.87L99.20 15.87L99.20 15.87Q98.85 15.55 98.56 15.08L98.56 15.08L98.56 15.08Q98.67 14.85 98.82 14.50L98.82 14.50L98.82 14.50Q98.97 14.15 99.17 13.66L99.17 13.66L99.17 13.66Q99.37 13.16 99.63 12.50L99.63 12.50L99.63 12.50Q99.89 11.83 100.23 10.95L100.23 10.95L100.23 10.95Q99.76 10.75 99.61 10.40L99.61 10.40L99.61 10.40Q99.68 10.35 99.92 10.28L99.92 10.28L99.92 10.28Q100.17 10.22 100.53 10.15L100.53 10.15L100.72 9.70L100.72 9.70Q101.01 8.95 101.20 8.43L101.20 8.43L101.20 8.43Q101.39 7.91 101.52 7.41L101.52 7.41L101.52 7.41Q101.65 6.92 101.77 6.31L101.77 6.31L101.77 6.31Q101.89 5.71 102.06 4.79L102.06 4.79L102.06 4.79Q102.65 4.90 103.13 5.31L103.13 5.31L103.13 5.31Q103.61 5.71 103.96 6.29L103.96 6.29L103.96 6.29Q103.84 6.45 103.66 6.79L103.66 6.79L103.66 6.79Q103.47 7.13 103.26 7.59L103.26 7.59L103.26 7.59Q103.04 8.06 102.79 8.64L102.79 8.64L102.79 8.64Q102.54 9.23 102.24 9.87L102.24 9.87L102.24 9.87Q103.11 9.76 104.00 9.66L104.00 9.66L104.00 9.66Q104.89 9.56 105.57 9.52L105.57 9.52L105.57 9.52Q105.83 8.79 106.10 8.10L106.10 8.10L106.10 8.10Q106.37 7.41 106.64 6.83L106.64 6.83L106.64 6.83Q106.90 6.26 107.15 5.82L107.15 5.82L107.15 5.82Q107.39 5.39 107.59 5.18L107.59 5.18L107.59 5.18Q107.73 5.19 107.96 5.29L107.96 5.29L107.96 5.29Q108.19 5.38 108.43 5.50L108.43 5.50L108.43 5.50Q108.67 5.63 108.86 5.78L108.86 5.78L108.86 5.78Q109.06 5.92 109.13 6.05L109.13 6.05L109.13 6.05Q108.88 6.29 108.63 6.66L108.63 6.66L108.63 6.66Q108.37 7.04 108.13 7.53L108.13 7.53L108.13 7.53Q107.88 8.02 107.65 8.60L107.65 8.60L107.65 8.60Q107.41 9.17 107.20 9.79L107.20 9.79L107.20 9.79Q107.48 10.04 107.48 10.42L107.48 10.42L107.48 10.42Q107.48 10.68 107.37 10.91L107.37 10.91L107.37 10.91Q107.24 10.88 107.11 10.87L107.11 10.87L107.11 10.87Q106.99 10.86 106.85 10.85L106.85 10.85L106.85 10.85Q106.61 11.61 106.41 12.35L106.41 12.35L106.41 12.35Q106.22 13.09 106.08 13.76L106.08 13.76L106.08 13.76Q105.95 14.43 105.88 14.99L105.88 14.99L105.88 14.99Q105.80 15.55 105.80 15.93L105.80 15.93L105.80 15.93Q105.80 16.07 105.80 16.16L105.80 16.16L105.80 16.16Q105.81 16.24 105.83 16.30L105.83 16.30L105.83 16.30Q105.52 16.28 105.38 16.19L105.38 16.19L105.38 16.19Q105.24 16.10 105.17 16.00L105.17 16.00L105.17 16.00Q105.10 15.89 105.04 15.79L105.04 15.79L105.04 15.79Q104.99 15.68 104.86 15.62L104.86 15.62L104.86 15.62Q104.76 15.58 104.68 15.43L104.68 15.43L104.68 15.43Q104.59 15.27 104.54 15.08L104.54 15.08L104.54 15.08Q104.48 14.88 104.45 14.69L104.45 14.69L104.45 14.69Q104.43 14.49 104.43 14.36ZM121.20 9.21L121.20 9.21L121.20 9.21Q121.66 9.21 121.92 9.46L121.92 9.46L121.92 9.46Q122.18 9.72 122.18 10.16L122.18 10.16L122.18 10.16Q122.18 10.28 122.16 10.39L122.16 10.39L122.16 10.39Q122.14 10.51 122.11 10.60L122.11 10.60L122.11 10.60Q121.93 10.57 121.70 10.55L121.70 10.55L121.70 10.55Q121.48 10.53 121.17 10.53L121.17 10.53L121.17 10.53Q120.57 10.53 119.95 10.63L119.95 10.63L119.95 10.63Q119.34 10.74 118.78 10.81L118.78 10.81L118.78 10.81Q118.45 11.55 118.19 12.24L118.19 12.24L118.19 12.24Q117.92 12.94 117.73 13.51L117.73 13.51L117.73 13.51Q117.54 14.08 117.44 14.50L117.44 14.50L117.44 14.50Q117.33 14.92 117.32 15.13L117.32 15.13L117.32 15.13Q118.45 14.90 119.61 14.73L119.61 14.73L119.61 14.73Q120.76 14.56 122.04 14.48L122.04 14.48L122.04 14.48Q122.19 14.71 122.30 14.99L122.30 14.99L122.30 14.99Q122.40 15.27 122.40 15.60L122.40 15.60L122.40 15.60Q122.40 15.68 122.40 15.78L122.40 15.78L122.40 15.78Q122.40 15.88 122.37 15.97L122.37 15.97L122.37 15.97Q121.98 15.96 121.55 15.95L121.55 15.95L121.55 15.95Q121.11 15.95 120.41 15.95L120.41 15.95L120.41 15.95Q119.95 15.95 119.54 15.97L119.54 15.97L119.54 15.97Q119.13 15.99 118.71 16.03L118.71 16.03L118.71 16.03Q118.29 16.07 117.82 16.14L117.82 16.14L117.82 16.14Q117.35 16.21 116.76 16.31L116.76 16.31L116.76 16.31Q116.12 16.06 115.51 15.08L115.51 15.08L115.51 15.08Q115.75 14.57 116.18 13.54L116.18 13.54L116.18 13.54Q116.61 12.52 117.26 10.79L117.26 10.79L117.26 10.79Q116.63 10.60 116.44 10.09L116.44 10.09L116.44 10.09Q116.51 10.02 116.84 9.92L116.84 9.92L116.84 9.92Q117.18 9.81 117.67 9.70L117.67 9.70L117.67 9.70Q117.88 9.16 118.03 8.75L118.03 8.75L118.03 8.75Q118.17 8.34 118.29 7.99L118.29 7.99L118.29 7.99Q118.40 7.63 118.49 7.29L118.49 7.29L118.49 7.29Q118.58 6.94 118.66 6.54L118.66 6.54L118.66 6.54Q118.17 6.51 117.89 6.27L117.89 6.27L117.89 6.27Q117.61 6.02 117.61 5.63L117.61 5.63L117.61 5.63Q117.61 5.52 117.65 5.36L117.65 5.36L117.65 5.36Q117.68 5.21 117.73 5.10L117.73 5.10L117.73 5.10Q118.01 5.14 118.27 5.15L118.27 5.15L118.27 5.15Q118.52 5.17 118.94 5.17L118.94 5.17L118.94 5.17Q119.83 5.17 120.60 5.12L120.60 5.12L120.60 5.12Q121.37 5.07 121.99 5.01L121.99 5.01L121.99 5.01Q122.61 4.96 123.06 4.91L123.06 4.91L123.06 4.91Q123.51 4.86 123.75 4.86L123.75 4.86L123.75 4.86Q124.07 4.86 124.32 5.19L124.32 5.19L124.32 5.19Q124.57 5.53 124.70 6.15L124.70 6.15L124.70 6.15Q124.26 6.10 123.99 6.09L123.99 6.09L123.99 6.09Q123.72 6.08 123.51 6.08L123.51 6.08L123.51 6.08Q122.74 6.08 122.10 6.15L122.10 6.15L122.10 6.15Q121.46 6.23 120.88 6.31L120.88 6.31L120.88 6.31Q120.79 6.44 120.69 6.64L120.69 6.64L120.69 6.64Q120.58 6.83 120.41 7.18L120.41 7.18L120.41 7.18Q120.25 7.53 120.00 8.06L120.00 8.06L120.00 8.06Q119.76 8.60 119.41 9.39L119.41 9.39L119.41 9.39Q119.94 9.31 120.41 9.26L120.41 9.26L120.41 9.26Q120.88 9.21 121.20 9.21ZM150.79 7.46L150.79 7.46L150.79 7.46Q150.79 8.13 150.49 8.73L150.49 8.73L150.49 8.73Q150.19 9.32 149.66 9.79L149.66 9.79L149.66 9.79Q149.13 10.26 148.41 10.58L148.41 10.58L148.41 10.58Q147.70 10.91 146.86 11.02L146.86 11.02L146.86 11.02Q147.07 11.65 147.37 12.31L147.37 12.31L147.37 12.31Q147.67 12.98 148.02 13.59L148.02 13.59L148.02 13.59Q148.37 14.21 148.75 14.73L148.75 14.73L148.75 14.73Q149.13 15.25 149.49 15.58L149.49 15.58L149.49 15.58Q149.42 15.72 149.29 15.86L149.29 15.86L149.29 15.86Q149.16 16.00 148.98 16.12L148.98 16.12L148.98 16.12Q148.81 16.24 148.62 16.32L148.62 16.32L148.62 16.32Q148.43 16.39 148.26 16.39L148.26 16.39L148.26 16.39Q147.95 16.39 147.67 16.10L147.67 16.10L147.67 16.10Q147.39 15.81 147.10 15.17L147.10 15.17L147.10 15.17Q146.82 14.53 146.50 13.52L146.50 13.52L146.50 13.52Q146.19 12.50 145.81 11.07L145.81 11.07L145.81 11.07Q145.66 11.07 145.50 11.07L145.50 11.07L145.50 11.07Q145.35 11.07 145.26 11.05L145.26 11.05L145.26 11.05Q145.17 10.99 145.05 10.85L145.05 10.85L145.05 10.85Q144.68 11.66 144.38 12.38L144.38 12.38L144.38 12.38Q144.09 13.09 143.86 13.76L143.86 13.76L143.86 13.76Q143.63 14.42 143.45 15.04L143.45 15.04L143.45 15.04Q143.28 15.67 143.15 16.31L143.15 16.31L143.15 16.31Q142.67 16.20 142.32 15.90L142.32 15.90L142.32 15.90Q141.97 15.61 141.67 15.08L141.67 15.08L141.67 15.08Q141.72 14.95 141.78 14.83L141.78 14.83L141.78 14.83Q141.85 14.71 141.95 14.50L141.95 14.50L141.95 14.50Q142.04 14.28 142.19 13.94L142.19 13.94L142.19 13.94Q142.34 13.61 142.58 13.05L142.58 13.05L142.58 13.05Q142.83 12.49 143.17 11.68L143.17 11.68L143.17 11.68Q143.51 10.86 144.00 9.70L144.00 9.70L144.00 9.70Q144.23 9.18 144.39 8.79L144.39 8.79L144.39 8.79Q144.55 8.40 144.68 8.04L144.68 8.04L144.68 8.04Q144.80 7.69 144.91 7.33L144.91 7.33L144.91 7.33Q145.01 6.97 145.12 6.51L145.12 6.51L145.12 6.51Q144.48 6.73 143.93 7.01L143.93 7.01L143.93 7.01Q143.37 7.28 143.01 7.59L143.01 7.59L143.01 7.59Q142.88 7.50 142.75 7.34L142.75 7.34L142.75 7.34Q142.62 7.17 142.51 6.96L142.51 6.96L142.51 6.96Q142.39 6.76 142.31 6.55L142.31 6.55L142.31 6.55Q142.23 6.34 142.21 6.17L142.21 6.17L142.21 6.17Q142.63 5.89 143.24 5.66L143.24 5.66L143.24 5.66Q143.85 5.42 144.54 5.24L144.54 5.24L144.54 5.24Q145.22 5.07 145.94 4.97L145.94 4.97L145.94 4.97Q146.65 4.87 147.27 4.87L147.27 4.87L147.27 4.87Q148.95 4.87 149.87 5.56L149.87 5.56L149.87 5.56Q150.79 6.26 150.79 7.46ZM147.21 6.02L147.38 6.29L147.38 6.29Q147.28 6.41 147.07 6.79L147.07 6.79L147.07 6.79Q146.86 7.17 146.59 7.69L146.59 7.69L146.59 7.69Q146.31 8.22 146.01 8.83L146.01 8.83L146.01 8.83Q145.71 9.45 145.43 10.05L145.43 10.05L145.43 10.05Q146.48 10.05 147.36 9.86L147.36 9.86L147.36 9.86Q148.25 9.66 148.89 9.30L148.89 9.30L148.89 9.30Q149.53 8.95 149.89 8.46L149.89 8.46L149.89 8.46Q150.25 7.98 150.25 7.39L150.25 7.39L150.25 7.39Q150.25 6.69 149.74 6.32L149.74 6.32L149.74 6.32Q149.24 5.95 148.19 5.95L148.19 5.95L148.19 5.95Q147.95 5.95 147.71 5.97L147.71 5.97L147.71 5.97Q147.48 5.99 147.21 6.02L147.21 6.02ZM158.37 14.38L158.37 14.38L158.37 14.38Q158.37 13.87 158.53 13.07L158.53 13.07L158.53 13.07Q158.69 12.26 158.95 11.33L158.95 11.33L158.95 11.33Q159.21 10.40 159.54 9.43L159.54 9.43L159.54 9.43Q159.88 8.46 160.23 7.60L160.23 7.60L160.23 7.60Q160.58 6.75 160.92 6.10L160.92 6.10L160.92 6.10Q161.25 5.46 161.52 5.18L161.52 5.18L161.52 5.18Q161.66 5.19 161.89 5.29L161.89 5.29L161.89 5.29Q162.12 5.38 162.36 5.50L162.36 5.50L162.36 5.50Q162.60 5.63 162.79 5.78L162.79 5.78L162.79 5.78Q162.99 5.92 163.04 6.05L163.04 6.05L163.04 6.05Q162.64 6.41 162.24 7.15L162.24 7.15L162.24 7.15Q161.84 7.88 161.47 8.82L161.47 8.82L161.47 8.82Q161.10 9.76 160.78 10.80L160.78 10.80L160.78 10.80Q160.45 11.84 160.22 12.82L160.22 12.82L160.22 12.82Q159.98 13.80 159.84 14.64L159.84 14.64L159.84 14.64Q159.71 15.48 159.71 16.00L159.71 16.00L159.71 16.00Q159.71 16.24 159.75 16.30L159.75 16.30L159.75 16.30Q159.45 16.28 159.31 16.19L159.31 16.19L159.31 16.19Q159.17 16.10 159.09 16.00L159.09 16.00L159.09 16.00Q159.01 15.89 158.95 15.79L158.95 15.79L158.95 15.79Q158.89 15.68 158.76 15.62L158.76 15.62L158.76 15.62Q158.66 15.58 158.59 15.43L158.59 15.43L158.59 15.43Q158.52 15.27 158.47 15.09L158.47 15.09L158.47 15.09Q158.42 14.90 158.40 14.70L158.40 14.70L158.40 14.70Q158.37 14.50 158.37 14.38ZM177.11 10.72L177.11 10.72L177.11 10.72Q177.48 10.72 177.69 10.98L177.69 10.98L177.69 10.98Q177.90 11.23 177.90 11.68L177.90 11.68L177.90 11.68Q177.90 11.79 177.88 11.91L177.88 11.91L177.88 11.91Q177.87 12.03 177.84 12.11L177.84 12.11L177.84 12.11Q177.55 12.04 177.20 12.03L177.20 12.03L177.20 12.03Q177.11 12.64 176.75 13.32L176.75 13.32L176.75 13.32Q176.39 14 175.87 14.60L175.87 14.60L175.87 14.60Q175.35 15.19 174.73 15.64L174.73 15.64L174.73 15.64Q174.12 16.09 173.52 16.24L173.52 16.24L173.52 16.24Q171.64 16.20 170.78 15.27L170.78 15.27L170.78 15.27Q169.92 14.34 169.92 12.36L169.92 12.36L169.92 12.36Q169.92 10.92 170.45 9.57L170.45 9.57L170.45 9.57Q170.98 8.22 171.86 7.17L171.86 7.17L171.86 7.17Q172.75 6.12 173.89 5.48L173.89 5.48L173.89 5.48Q175.03 4.84 176.26 4.84L176.26 4.84L176.26 4.84Q177.23 4.84 177.76 5.25L177.76 5.25L177.76 5.25Q178.30 5.66 178.30 6.40L178.30 6.40L178.30 6.40Q178.30 6.89 178.07 7.31L178.07 7.31L178.07 7.31Q177.84 7.73 177.31 8.22L177.31 8.22L177.31 8.22Q176.99 8.12 176.75 7.88L176.75 7.88L176.75 7.88Q176.51 7.63 176.46 7.31L176.46 7.31L176.46 7.31Q176.93 6.96 177.13 6.66L177.13 6.66L177.13 6.66Q177.32 6.37 177.32 5.96L177.32 5.96L177.32 5.96Q177.32 5.32 176.55 5.32L176.55 5.32L176.55 5.32Q175.92 5.32 175.20 5.79L175.20 5.79L175.20 5.79Q174.48 6.26 173.75 7.14L173.75 7.14L173.75 7.14Q172.72 8.39 172.24 9.71L172.24 9.71L172.24 9.71Q171.77 11.03 171.77 12.68L171.77 12.68L171.77 12.68Q171.77 13.30 171.89 13.80L171.89 13.80L171.89 13.80Q172.02 14.31 172.23 14.69L172.23 14.69L172.23 14.69Q172.44 15.06 172.72 15.29L172.72 15.29L172.72 15.29Q173.01 15.51 173.35 15.54L173.35 15.54L173.35 15.54Q173.80 15.44 174.24 15.09L174.24 15.09L174.24 15.09Q174.69 14.73 175.06 14.25L175.06 14.25L175.06 14.25Q175.43 13.76 175.69 13.21L175.69 13.21L175.69 13.21Q175.95 12.66 176.01 12.15L176.01 12.15L176.01 12.15Q175.62 12.24 175.26 12.31L175.26 12.31L175.26 12.31Q174.90 12.39 174.58 12.39L174.58 12.39L174.58 12.39Q174.16 12.39 173.84 12.18L173.84 12.18L173.84 12.18Q173.53 11.97 173.42 11.61L173.42 11.61L173.42 11.61Q173.67 11.47 174.15 11.31L174.15 11.31L174.15 11.31Q174.64 11.16 175.18 11.03L175.18 11.03L175.18 11.03Q175.73 10.89 176.25 10.81L176.25 10.81L176.25 10.81Q176.78 10.72 177.11 10.72ZM190.92 14.36L190.92 14.36L190.92 14.36Q190.92 13.78 191.11 12.85L191.11 12.85L191.11 12.85Q191.31 11.93 191.63 10.88L191.63 10.88L191.63 10.88Q190.71 10.95 189.78 11.06L189.78 11.06L189.78 11.06Q188.85 11.17 188.16 11.19L188.16 11.19L188.16 11.19Q187.53 12.66 187.16 13.89L187.16 13.89L187.16 13.89Q186.79 15.13 186.58 16.31L186.58 16.31L186.58 16.31Q186.05 16.18 185.70 15.87L185.70 15.87L185.70 15.87Q185.35 15.55 185.05 15.08L185.05 15.08L185.05 15.08Q185.16 14.85 185.31 14.50L185.31 14.50L185.31 14.50Q185.46 14.15 185.66 13.66L185.66 13.66L185.66 13.66Q185.86 13.16 186.12 12.50L186.12 12.50L186.12 12.50Q186.38 11.83 186.72 10.95L186.72 10.95L186.72 10.95Q186.26 10.75 186.10 10.40L186.10 10.40L186.10 10.40Q186.17 10.35 186.42 10.28L186.42 10.28L186.42 10.28Q186.66 10.22 187.03 10.15L187.03 10.15L187.21 9.70L187.21 9.70Q187.50 8.95 187.69 8.43L187.69 8.43L187.69 8.43Q187.88 7.91 188.01 7.41L188.01 7.41L188.01 7.41Q188.15 6.92 188.26 6.31L188.26 6.31L188.26 6.31Q188.38 5.71 188.55 4.79L188.55 4.79L188.55 4.79Q189.14 4.90 189.62 5.31L189.62 5.31L189.62 5.31Q190.11 5.71 190.46 6.29L190.46 6.29L190.46 6.29Q190.33 6.45 190.15 6.79L190.15 6.79L190.15 6.79Q189.97 7.13 189.75 7.59L189.75 7.59L189.75 7.59Q189.53 8.06 189.28 8.64L189.28 8.64L189.28 8.64Q189.03 9.23 188.73 9.87L188.73 9.87L188.73 9.87Q189.60 9.76 190.49 9.66L190.49 9.66L190.49 9.66Q191.38 9.56 192.07 9.52L192.07 9.52L192.07 9.52Q192.32 8.79 192.59 8.10L192.59 8.10L192.59 8.10Q192.86 7.41 193.13 6.83L193.13 6.83L193.13 6.83Q193.40 6.26 193.64 5.82L193.64 5.82L193.64 5.82Q193.89 5.39 194.08 5.18L194.08 5.18L194.08 5.18Q194.22 5.19 194.45 5.29L194.45 5.29L194.45 5.29Q194.68 5.38 194.92 5.50L194.92 5.50L194.92 5.50Q195.16 5.63 195.36 5.78L195.36 5.78L195.36 5.78Q195.55 5.92 195.62 6.05L195.62 6.05L195.62 6.05Q195.37 6.29 195.12 6.66L195.12 6.66L195.12 6.66Q194.87 7.04 194.62 7.53L194.62 7.53L194.62 7.53Q194.38 8.02 194.14 8.60L194.14 8.60L194.14 8.60Q193.90 9.17 193.69 9.79L193.69 9.79L193.69 9.79Q193.97 10.04 193.97 10.42L193.97 10.42L193.97 10.42Q193.97 10.68 193.86 10.91L193.86 10.91L193.86 10.91Q193.73 10.88 193.61 10.87L193.61 10.87L193.61 10.87Q193.48 10.86 193.34 10.85L193.34 10.85L193.34 10.85Q193.10 11.61 192.91 12.35L192.91 12.35L192.91 12.35Q192.71 13.09 192.58 13.76L192.58 13.76L192.58 13.76Q192.44 14.43 192.37 14.99L192.37 14.99L192.37 14.99Q192.29 15.55 192.29 15.93L192.29 15.93L192.29 15.93Q192.29 16.07 192.30 16.16L192.30 16.16L192.30 16.16Q192.30 16.24 192.32 16.30L192.32 16.30L192.32 16.30Q192.01 16.28 191.87 16.19L191.87 16.19L191.87 16.19Q191.73 16.10 191.66 16.00L191.66 16.00L191.66 16.00Q191.59 15.89 191.53 15.79L191.53 15.79L191.53 15.79Q191.48 15.68 191.35 15.62L191.35 15.62L191.35 15.62Q191.25 15.58 191.17 15.43L191.17 15.43L191.17 15.43Q191.09 15.27 191.03 15.08L191.03 15.08L191.03 15.08Q190.97 14.88 190.95 14.69L190.95 14.69L190.95 14.69Q190.92 14.49 190.92 14.36ZM204.68 6.69L204.68 6.69L204.68 6.69Q204.12 6.69 203.82 6.38L203.82 6.38L203.82 6.38Q203.52 6.06 203.52 5.61L203.52 5.61L203.52 5.61Q203.52 5.50 203.55 5.35L203.55 5.35L203.55 5.35Q203.59 5.19 203.64 5.08L203.64 5.08L203.64 5.08Q203.83 5.17 204.18 5.20L204.18 5.20L204.18 5.20Q204.54 5.24 205.02 5.24L205.02 5.24L205.02 5.24Q205.73 5.24 206.63 5.17L206.63 5.17L206.63 5.17Q207.54 5.11 208.36 5.04L208.36 5.04L208.36 5.04Q209.19 4.97 209.82 4.91L209.82 4.91L209.82 4.91Q210.45 4.84 210.63 4.84L210.63 4.84L210.63 4.84Q211.15 4.84 211.38 5.23L211.38 5.23L211.38 5.23Q211.61 5.61 211.72 6.26L211.72 6.26L211.72 6.26Q211.36 6.23 211.00 6.21L211.00 6.21L211.00 6.21Q210.64 6.19 210.39 6.19L210.39 6.19L210.39 6.19Q209.94 6.19 209.49 6.22L209.49 6.22L209.49 6.22Q209.03 6.24 208.57 6.30L208.57 6.30L208.57 6.30Q208.38 6.71 208.14 7.26L208.14 7.26L208.14 7.26Q207.90 7.81 207.67 8.41L207.67 8.41L207.67 8.41Q207.44 9.02 207.23 9.61L207.23 9.61L207.23 9.61Q207.02 10.21 206.86 10.68L206.86 10.68L206.86 10.68Q206.56 11.61 206.32 12.39L206.32 12.39L206.32 12.39Q206.09 13.17 205.92 13.85L205.92 13.85L205.92 13.85Q205.74 14.53 205.62 15.15L205.62 15.15L205.62 15.15Q205.49 15.76 205.39 16.35L205.39 16.35L205.39 16.35Q204.46 16.21 203.83 15.18L203.83 15.18L203.83 15.18Q203.94 14.74 204.10 14.23L204.10 14.23L204.10 14.23Q204.26 13.72 204.48 13.07L204.48 13.07L204.48 13.07Q204.69 12.42 204.99 11.59L204.99 11.59L204.99 11.59Q205.28 10.77 205.66 9.72L205.66 9.72L205.66 9.72Q205.80 9.32 205.95 8.90L205.95 8.90L205.95 8.90Q206.11 8.47 206.25 8.05L206.25 8.05L206.25 8.05Q206.40 7.63 206.52 7.24L206.52 7.24L206.52 7.24Q206.64 6.85 206.72 6.52L206.72 6.52L206.72 6.52Q206.14 6.59 205.61 6.64L205.61 6.64L205.61 6.64Q205.09 6.69 204.68 6.69ZM229.26 15.61L229.26 15.61L229.26 15.61Q229.19 15.04 229.16 14.36L229.16 14.36L229.16 14.36Q229.12 13.68 229.12 13.09L229.12 13.09L229.12 13.09Q229.12 12.15 229.19 11.29L229.19 11.29L229.19 11.29Q229.25 10.43 229.34 9.48L229.34 9.48L229.34 9.48Q229.43 8.54 229.54 7.43L229.54 7.43L229.54 7.43Q229.66 6.31 229.74 4.86L229.74 4.86L229.74 4.86Q229.92 4.86 230.26 4.96L230.26 4.96L230.26 4.96Q230.61 5.07 230.96 5.21L230.96 5.21L230.96 5.21Q231.31 5.35 231.57 5.49L231.57 5.49L231.57 5.49Q231.84 5.64 231.88 5.74L231.88 5.74L231.88 5.74Q231.64 6.29 231.45 7.18L231.45 7.18L231.45 7.18Q231.27 8.06 231.14 9.11L231.14 9.11L231.14 9.11Q231.01 10.16 230.94 11.27L230.94 11.27L230.94 11.27Q230.87 12.38 230.87 13.34L230.87 13.34L230.87 13.34Q230.87 13.79 230.89 14.22L230.89 14.22L230.89 14.22Q230.90 14.66 230.93 15.02L230.93 15.02L230.93 15.02Q231.22 14.59 231.61 13.78L231.61 13.78L231.61 13.78Q231.99 12.98 232.41 11.98L232.41 11.98L232.41 11.98Q232.82 10.99 233.23 9.91L233.23 9.91L233.23 9.91Q233.65 8.82 234.00 7.83L234.00 7.83L234.00 7.83Q234.35 6.85 234.59 6.05L234.59 6.05L234.59 6.05Q234.84 5.26 234.93 4.86L234.93 4.86L234.93 4.86Q235.12 4.86 235.47 4.96L235.47 4.96L235.47 4.96Q235.83 5.07 236.17 5.21L236.17 5.21L236.17 5.21Q236.52 5.35 236.78 5.49L236.78 5.49L236.78 5.49Q237.05 5.64 237.08 5.74L237.08 5.74L237.08 5.74Q236.84 6.29 236.65 7.18L236.65 7.18L236.65 7.18Q236.46 8.06 236.33 9.11L236.33 9.11L236.33 9.11Q236.21 10.16 236.14 11.27L236.14 11.27L236.14 11.27Q236.07 12.38 236.07 13.34L236.07 13.34L236.07 13.34Q236.07 13.75 236.07 14.15L236.07 14.15L236.07 14.15Q236.08 14.55 236.11 14.87L236.11 14.87L236.11 14.87Q236.56 13.71 237.04 12.56L237.04 12.56L237.04 12.56Q237.52 11.42 238.00 10.38L238.00 10.38L238.00 10.38Q238.48 9.34 238.92 8.43L238.92 8.43L238.92 8.43Q239.37 7.53 239.75 6.82L239.75 6.82L239.75 6.82Q240.13 6.12 240.41 5.66L240.41 5.66L240.41 5.66Q240.69 5.19 240.84 5.04L240.84 5.04L240.84 5.04Q241.16 5.08 241.51 5.27L241.51 5.27L241.51 5.27Q241.85 5.46 242.12 5.75L242.12 5.75L242.12 5.75Q241.71 6.08 241.19 6.81L241.19 6.81L241.19 6.81Q240.67 7.55 240.13 8.51L240.13 8.51L240.13 8.51Q239.58 9.48 239.03 10.57L239.03 10.57L239.03 10.57Q238.48 11.66 238.00 12.70L238.00 12.70L238.00 12.70Q237.52 13.73 237.15 14.63L237.15 14.63L237.15 14.63Q236.78 15.53 236.59 16.07L236.59 16.07L236.59 16.07Q236.22 16.24 235.87 16.24L235.87 16.24L235.87 16.24Q235.42 16.18 235.02 16.02L235.02 16.02L235.02 16.02Q234.63 15.85 234.46 15.61L234.46 15.61L234.46 15.61Q234.42 15.39 234.39 15.09L234.39 15.09L234.39 15.09Q234.36 14.78 234.35 14.49L234.35 14.49L234.35 14.49Q234.33 14.20 234.32 13.92L234.32 13.92L234.32 13.92Q234.32 13.65 234.32 13.45L234.32 13.45L234.32 13.45Q234.32 12.21 234.42 10.91L234.42 10.91L234.42 10.91Q234.51 9.62 234.65 8.13L234.65 8.13L234.65 8.13Q234.33 9.09 233.94 10.18L233.94 10.18L233.94 10.18Q233.55 11.27 233.12 12.34L233.12 12.34L233.12 12.34Q232.69 13.41 232.25 14.38L232.25 14.38L232.25 14.38Q231.81 15.36 231.39 16.07L231.39 16.07L231.39 16.07Q231.03 16.24 230.68 16.24L230.68 16.24L230.68 16.24Q230.23 16.18 229.83 16.02L229.83 16.02L229.83 16.02Q229.43 15.85 229.26 15.61ZM248.26 16.24L248.26 16.24L248.26 16.24Q247.59 16.04 247.33 15.85L247.33 15.85L247.33 15.85Q247.07 15.65 247.07 15.36L247.07 15.36L247.07 15.36Q247.07 15.13 247.20 14.73L247.20 14.73L247.20 14.73Q247.32 14.32 247.57 13.77L247.57 13.77L247.57 13.77Q247.81 13.22 248.16 12.54L248.16 12.54L248.16 12.54Q248.50 11.87 248.93 11.10L248.93 11.10L248.93 11.10Q248.57 11.09 248.28 11.08L248.28 11.08L248.28 11.08Q248.00 11.07 247.81 11.07L247.81 11.07L247.81 11.07Q247.90 10.86 248.29 10.71L248.29 10.71L248.29 10.71Q248.68 10.56 249.33 10.44L249.33 10.44L249.33 10.44Q249.87 9.53 250.49 8.71L250.49 8.71L250.49 8.71Q251.12 7.88 251.75 7.19L251.75 7.19L251.75 7.19Q252.38 6.50 253.01 5.97L253.01 5.97L253.01 5.97Q253.64 5.45 254.21 5.14L254.21 5.14L254.21 5.14Q254.23 5.04 254.23 4.97L254.23 4.97L254.23 4.97Q254.24 4.90 254.24 4.87L254.24 4.87L254.24 4.87Q254.44 4.87 254.76 4.97L254.76 4.97L254.76 4.97Q255.09 5.07 255.41 5.21L255.41 5.21L255.41 5.21Q255.72 5.35 255.97 5.49L255.97 5.49L255.97 5.49Q256.21 5.64 256.24 5.74L256.24 5.74L256.24 5.74Q255.78 6.55 255.33 8.17L255.33 8.17L255.33 8.17Q254.88 9.79 254.59 12.04L254.59 12.04L254.59 12.04Q254.52 12.60 254.47 13.31L254.47 13.31L254.47 13.31Q254.42 14.03 254.42 14.91L254.42 14.91L254.42 14.91Q254.42 15.22 254.42 15.54L254.42 15.54L254.42 15.54Q254.42 15.86 254.45 16.21L254.45 16.21L254.45 16.21Q254.42 16.23 254.39 16.23L254.39 16.23L254.39 16.23Q254.37 16.23 254.28 16.23L254.28 16.23L254.28 16.23Q254.09 16.23 253.83 16.16L253.83 16.16L253.83 16.16Q253.57 16.10 253.32 16.01L253.32 16.01L253.32 16.01Q253.08 15.92 252.90 15.81L252.90 15.81L252.90 15.81Q252.73 15.69 252.69 15.61L252.69 15.61L252.69 15.61Q252.67 15.43 252.67 15.25L252.67 15.25L252.67 15.25Q252.67 15.08 252.67 14.88L252.67 14.88L252.67 14.88Q252.67 14.01 252.73 13.12L252.73 13.12L252.73 13.12Q252.80 12.22 252.95 11.27L252.95 11.27L252.95 11.27Q252.76 11.26 252.43 11.23L252.43 11.23L252.43 11.23Q252.11 11.21 251.71 11.20L251.71 11.20L251.71 11.20Q251.31 11.19 250.86 11.16L250.86 11.16L250.86 11.16Q250.40 11.14 249.97 11.13L249.97 11.13L249.97 11.13Q249.63 11.76 249.34 12.38L249.34 12.38L249.34 12.38Q249.05 13.01 248.84 13.64L248.84 13.64L248.84 13.64Q248.60 14.31 248.45 14.98L248.45 14.98L248.45 14.98Q248.30 15.65 248.26 16.24ZM253.67 7.83L253.67 7.83L253.67 7.83Q253.72 7.63 253.80 7.29L253.80 7.29L253.80 7.29Q253.88 6.94 253.95 6.57L253.95 6.57L253.95 6.57Q253.60 6.69 253.17 7.03L253.17 7.03L253.17 7.03Q252.74 7.36 252.29 7.86L252.29 7.86L252.29 7.86Q251.83 8.36 251.36 8.98L251.36 8.98L251.36 8.98Q250.89 9.60 250.46 10.30L250.46 10.30L250.46 10.30Q251.64 10.21 253.13 10.18L253.13 10.18L253.13 10.18Q253.25 9.59 253.38 9.01L253.38 9.01L253.38 9.01Q253.51 8.43 253.67 7.83ZM267.81 10.35L267.81 10.35L267.81 10.35Q268.86 9.20 269.69 7.91L269.69 7.91L269.69 7.91Q270.52 6.62 271.24 5.01L271.24 5.01L271.24 5.01Q271.60 5.05 271.94 5.21L271.94 5.21L271.94 5.21Q272.27 5.36 272.47 5.56L272.47 5.56L272.47 5.56Q271.70 6.48 271.07 7.24L271.07 7.24L271.07 7.24Q270.45 7.99 269.93 8.66L269.93 8.66L269.93 8.66Q269.42 9.32 268.98 9.93L268.98 9.93L268.98 9.93Q268.53 10.54 268.11 11.16L268.11 11.16L268.11 11.16Q267.90 11.87 267.72 12.60L267.72 12.60L267.72 12.60Q267.54 13.33 267.40 13.99L267.40 13.99L267.40 13.99Q267.26 14.66 267.18 15.22L267.18 15.22L267.18 15.22Q267.11 15.79 267.11 16.20L267.11 16.20L267.11 16.20Q266.95 16.20 266.62 16.14L266.62 16.14L266.62 16.14Q266.28 16.07 265.93 15.99L265.93 15.99L265.93 15.99Q265.58 15.90 265.29 15.82L265.29 15.82L265.29 15.82Q265.01 15.74 264.95 15.68L264.95 15.68L264.95 15.68Q265.17 15.30 265.39 14.75L265.39 14.75L265.39 14.75Q265.61 14.20 265.82 13.59L265.82 13.59L265.82 13.59Q266.03 12.98 266.22 12.36L266.22 12.36L266.22 12.36Q266.42 11.73 266.59 11.20L266.59 11.20L266.59 11.20Q266.24 10.11 265.91 9.15L265.91 9.15L265.91 9.15Q265.58 8.19 265.27 7.41L265.27 7.41L265.27 7.41Q264.96 6.64 264.68 6.08L264.68 6.08L264.68 6.08Q264.40 5.52 264.15 5.22L264.15 5.22L264.15 5.22Q264.29 5.17 264.58 5.11L264.58 5.11L264.58 5.11Q264.87 5.05 265.21 5.00L265.21 5.00L265.21 5.00Q265.55 4.94 265.91 4.91L265.91 4.91L265.91 4.91Q266.27 4.87 266.55 4.86L266.55 4.86L266.55 4.86Q266.55 5.21 266.61 5.71L266.61 5.71L266.61 5.71Q266.67 6.22 266.78 6.79L266.78 6.79L266.78 6.79Q266.88 7.36 267.02 7.95L267.02 7.95L267.02 7.95Q267.16 8.54 267.30 9.03L267.30 9.03L267.30 9.03Q267.44 9.52 267.57 9.88L267.57 9.88L267.57 9.88Q267.71 10.23 267.81 10.35ZM277.80 15.71L277.80 15.71L277.80 15.71Q277.58 15.68 277.33 15.52L277.33 15.52L277.33 15.52Q277.09 15.36 277.02 15.16L277.02 15.16L277.02 15.16Q277.02 14.99 277.07 14.73L277.07 14.73L277.07 14.73Q277.12 14.46 277.19 14.19L277.19 14.19L277.19 14.19Q277.26 13.92 277.33 13.67L277.33 13.67L277.33 13.67Q277.40 13.43 277.42 13.30L277.42 13.30L277.42 13.30Q277.59 13.30 277.85 13.38L277.85 13.38L277.85 13.38Q278.11 13.47 278.38 13.62L278.38 13.62L278.38 13.62Q278.66 13.76 278.90 13.95L278.90 13.95L278.90 13.95Q279.15 14.14 279.27 14.34L279.27 14.34L279.27 14.34Q279.15 14.62 278.95 14.87L278.95 14.87L278.95 14.87Q278.75 15.12 278.54 15.31L278.54 15.31L278.54 15.31Q278.32 15.50 278.12 15.60L278.12 15.60L278.12 15.60Q277.93 15.71 277.80 15.71Z"></path></g></svg>